<?xml version="1.0" standalone="no"?>
<!DOCTYPE svg PUBLIC "-//W3C//DTD SVG 20010904//EN"
 "http://www.w3.org/TR/2001/REC-SVG-20010904/DTD/svg10.dtd">
<svg version="1.0" xmlns="http://www.w3.org/2000/svg"
 width="200.000000pt" height="200.000000pt" viewBox="0 0 200.000000 200.000000"
 preserveAspectRatio="xMidYMid meet">

<g transform="translate(0.000000,200.000000) scale(0.100000,-0.100000)"
fill="#000000" stroke="none">
<path d="M0 1201 l0 -800 43 -4 42 -4 -42 -1 -43 -2 0 -195 0 -195 1000 0
1000 0 0 1000 0 1000 -1000 0 -1000 0 0 -799z m1039 630 c10 -6 -19 -11 -85
-14 -97 -4 -139 -10 -179 -27 -11 -4 -40 -13 -65 -21 -88 -25 -187 -85 -267
-162 -29 -28 -55 -49 -58 -46 -19 19 211 199 255 199 10 0 21 4 24 9 3 4 27
14 53 21 27 6 57 16 68 21 54 24 226 37 254 20z m574 -255 c36 -35 71 -75 79
-89 7 -14 29 -51 48 -83 20 -33 45 -86 56 -119 12 -33 27 -78 34 -100 16 -45
18 -314 3 -352 -5 -14 -8 35 -8 130 0 83 -3 166 -7 182 -32 130 -53 196 -75
235 -39 66 -128 178 -187 233 -28 26 -42 43 -30 38 12 -6 50 -39 87 -75z
m-543 64 c19 -5 64 -16 99 -25 72 -17 175 -64 209 -94 111 -95 164 -156 201
-228 56 -108 73 -181 68 -295 -11 -264 -165 -489 -401 -587 -41 -17 -100 -33
-132 -36 l-59 -6 38 15 c21 7 54 17 75 21 47 9 163 77 218 127 50 46 121 178
154 287 29 94 25 207 -12 341 -15 56 -104 230 -126 248 -9 7 -16 18 -14 23 1
5 -4 9 -12 9 -8 0 -16 7 -20 15 -3 8 -9 14 -14 13 -4 -2 -32 20 -61 49 -29 29
-73 60 -98 69 -44 17 -47 17 -76 0 -17 -9 -67 -22 -111 -27 -141 -16 -270 -52
-332 -93 -54 -36 -154 -132 -154 -148 0 -4 -16 -25 -35 -46 -19 -21 -48 -67
-65 -103 l-31 -64 7 45 c15 100 70 206 153 294 58 61 172 143 232 165 19 7 43
17 54 22 41 17 191 23 245 9z m-829 -313 c-26 -46 -40 -101 -46 -176 -8 -90
-24 -122 -18 -36 5 77 35 194 60 232 24 36 27 20 4 -20z m-50 -465 c7 -45 10
-85 7 -88 -13 -12 -39 148 -32 189 8 38 9 39 11 12 1 -16 8 -67 14 -113z m28
-147 c0 -5 -4 -3 -9 5 -5 8 -9 22 -9 30 0 16 17 -16 18 -35z m1584 12 c-3 -13
-16 -37 -29 -53 -27 -33 -23 -11 9 44 23 38 26 40 20 9z m-1472 -217 c47 -72
135 -153 239 -217 89 -55 94 -71 10 -28 -113 57 -282 238 -336 362 -36 82 -28
87 14 8 21 -38 54 -95 73 -125z m1422 110 c-8 -30 -21 -34 -15 -5 2 14 8 25
12 25 5 0 6 -9 3 -20z m-63 -104 c-16 -25 -36 -48 -42 -52 -12 -8 22 45 50 79
27 31 23 18 -8 -27z m-116 -137 c-33 -36 -133 -103 -141 -96 -3 3 15 18 39 33
23 15 60 42 81 60 47 43 60 44 21 3z m-164 -113 c-18 -17 -90 -48 -90 -38 1 8
79 50 95 51 5 1 3 -5 -5 -13z m-680 -52 c19 -7 46 -13 60 -14 14 0 36 -7 50
-16 24 -14 24 -14 -15 -8 -58 8 -105 24 -140 47 -16 10 -21 16 -10 12 11 -4
36 -14 55 -21z m338 -50 c-8 -7 -157 -8 -165 0 -3 3 33 6 82 6 49 0 86 -3 83
-6z"/>
</g>
</svg>
